{
	"asset":{
		"generator":"Khronos glTF Blender I/O v5.2.39",
		"version":"2.0"
	},
	"scene":0,
	"scenes":[
		{
			"name":"Scene",
			"nodes":[
				0
			]
		}
	],
	"nodes":[
		{
			"mesh":0,
			"name":"Icosphere"
		}
	],
	"meshes":[
		{
			"name":"Icosphere",
			"primitives":[
				{
					"attributes":{
						"POSITION":0,
						"NORMAL":1,
						"TEXCOORD_0":2
					},
					"indices":3
				}
			]
		}
	],
	"accessors":[
		{
			"bufferView":0,
			"componentType":5126,
			"count":61440,
			"max":[
				500,
				500,
				500
			],
			"min":[
				-500.0000305175781,
				-500,
				-500
			],
			"type":"VEC3"
		},
		{
			"bufferView":1,
			"componentType":5126,
			"count":61440,
			"type":"VEC3"
		},
		{
			"bufferView":2,
			"componentType":5126,
			"count":61440,
			"type":"VEC2"
		},
		{
			"bufferView":3,
			"componentType":5123,
			"count":61440,
			"type":"SCALAR"
		}
	],
	"bufferViews":[
		{
			"buffer":0,
			"byteLength":737280,
			"byteOffset":0,
			"target":34962
		},
		{
			"buffer":0,
			"byteLength":737280,
			"byteOffset":737280,
			"target":34962
		},
		{
			"buffer":0,
			"byteLength":491520,
			"byteOffset":1474560,
			"target":34962
		},
		{
			"buffer":0,
			"byteLength":122880,
			"byteOffset":1966080,
			"target":34963
		}
	],
	"buffers":[
		{
			"byteLength":2088960,
			"uri":"skybox.bin"
		}
	]
}
